<?xml version="1.0" standalone="no"?>
<!DOCTYPE svg PUBLIC "-//W3C//DTD SVG 20010904//EN"
 "http://www.w3.org/TR/2001/REC-SVG-20010904/DTD/svg10.dtd">
<svg version="1.0" xmlns="http://www.w3.org/2000/svg"
 width="79.000000pt" height="79.000000pt" viewBox="0 0 79.000000 79.000000"
 preserveAspectRatio="xMidYMid meet">
<metadata>
Created by potrace 1.14, written by Peter Selinger 2001-2017
</metadata>
<g transform="translate(0.000000,79.000000) scale(0.100000,-0.100000)"
fill="#000000" stroke="none">
<path d="M352 662 c-15 -15 -40 -36 -57 -46 -16 -11 -38 -29 -49 -42 -15 -19
-23 -21 -44 -13 -34 13 -47 -2 -22 -28 16 -17 19 -32 16 -75 l-4 -53 -43 -10
c-39 -10 -44 -15 -56 -53 -6 -23 -14 -70 -17 -104 l-5 -63 152 -1 c84 0 207
-4 273 -8 67 -5 137 -6 157 -2 31 6 37 12 49 49 8 23 14 66 13 95 -3 88 1 82
-62 76 -50 -4 -56 -3 -41 9 11 9 14 18 7 28 -13 21 -11 50 4 48 29 -4 38 2 35
24 -2 17 -8 21 -30 19 -18 -2 -30 3 -37 17 -10 17 -7 21 23 32 20 7 32 17 29
25 -8 22 -31 24 -55 5 -22 -18 -23 -18 -55 6 -18 14 -35 34 -39 45 -6 21 -59
48 -95 48 -11 0 -33 -12 -47 -28z m-94 -305 c6 -5 12 -19 12 -31 -1 -35 -25
-57 -67 -60 -34 -2 -39 -6 -49 -36 -7 -19 -15 -35 -20 -35 -16 0 -16 36 1 105
15 62 20 69 43 72 33 4 63 -2 80 -15z m197 -29 c-7 -46 -7 -46 -20 -93 -9 -33
-26 -49 -36 -34 -11 19 32 169 49 169 12 0 13 -8 7 -42z m106 -25 c7 -7 8 -28
4 -57 l-7 -47 -52 3 c-43 3 -51 6 -54 25 -4 27 33 55 65 47 18 -5 22 -3 17 10
-3 9 -17 16 -31 16 -13 0 -22 4 -19 9 8 12 63 8 77 -6z m-190 -3 c24 -14 25
-61 1 -83 -23 -21 -75 -25 -96 -8 -9 7 -16 26 -16 42 0 47 62 75 111 49z m249
0 c0 -7 6 -7 19 0 29 15 43 12 39 -7 -2 -11 -12 -18 -27 -18 -24 0 -30 -7 -50
-59 -9 -21 -15 -26 -23 -18 -15 15 9 112 28 112 8 0 14 -5 14 -10z"/>
<path d="M180 331 c-16 -30 -12 -43 11 -39 31 4 49 35 29 48 -22 14 -28 12
-40 -9z"/>
<path d="M492 247 c-6 -7 -7 -18 -3 -26 6 -10 12 -9 25 4 9 9 14 21 11 26 -8
13 -21 11 -33 -4z"/>
<path d="M301 273 c-12 -23 -12 -35 1 -50 12 -15 42 -2 52 22 14 39 -33 64
-53 28z"/>
<path d="M200 151 c0 -7 -5 -9 -12 -5 -7 5 -8 3 -3 -5 5 -9 10 -10 18 -2 6 6
8 14 4 18 -4 3 -7 1 -7 -6z"/>
<path d="M250 151 c0 -6 4 -13 10 -16 6 -3 7 1 4 9 -7 18 -14 21 -14 7z"/>
<path d="M460 128 c0 -4 7 -8 15 -8 8 0 15 4 15 8 0 5 -7 9 -15 9 -8 0 -15 -4
-15 -9z"/>
<path d="M530 124 c0 -8 5 -12 10 -9 6 3 10 10 10 16 0 5 -4 9 -10 9 -5 0 -10
-7 -10 -16z"/>
<path d="M590 132 c0 -4 9 -8 20 -8 11 0 20 4 20 8 0 4 -9 8 -20 8 -11 0 -20
-4 -20 -8z"/>
</g>
</svg>
