<svg width="14" height="14" fill="none" xmlns="http://www.w3.org/2000/svg"><path d="M11.54 11.922H3.745a1.232 1.232 0 010-2.461h1.23l-.739.82h-.49a.41.41 0 000 .82h7.792v.82z" fill="#F9C2D2"/><path d="M7.848 11.102h3.691v.82H7.848v-.82z" fill="#F98AAB"/><path opacity=".5" d="M2.963 4.54l-.366-1.642H0v-.82h3.255l.71 3.182-1.002-.72z" fill="#F98AAB"/><path d="M9.61 4.68l-.123-.14H2.965l1.273 5.741h7.21l1.445-5.594c-.28.07-1.942 1.534-3.283-.007zm2.064 1.448L11.447 7H9.525l.104-1.251c.602.366 1.34.512 2.045.379zM6.996 7l-.137-1.64h1.98L8.702 7H6.995zm1.638.82l-.137 1.64H7.2l-.137-1.64h1.57zM6.036 5.36L6.173 7H4.35l-.363-1.64h2.048zM4.533 7.82h1.708l.137 1.64H4.897l-.364-1.64zM9.32 9.46l.136-1.64h1.78l-.424 1.64H9.32z" fill="#F9C2D2"/><path d="M9.609 4.68l-.123-.14H7.848v.82h.99L8.7 7h-.853v.82h.785l-.137 1.64h-.648v.821h3.599l1.445-5.594c-.28.07-1.942 1.534-3.283-.007zm1.202 4.78H9.32l.136-1.64h1.78l-.424 1.64zm.861-3.332L11.447 7H9.524l.104-1.251c.601.366 1.34.512 2.044.379z" fill="#F98AAB"/><path d="M5.387 13.563a1.232 1.232 0 010-2.46 1.23 1.23 0 110 2.459z" fill="#665151"/><path d="M9.488 13.563a1.232 1.232 0 010-2.46 1.229 1.229 0 110 2.459z" fill="#4D3535"/><path d="M11.129 6.18a2.872 2.872 0 01-2.871-2.871 2.875 2.875 0 012.87-2.872A2.875 2.875 0 0114 3.31a2.868 2.868 0 01-2.871 2.87z" fill="#F9C2D2"/><path d="M5.387 12.742a.41.41 0 100-.82.41.41 0 000 .82z" fill="#FFF7E6"/><path d="M9.488 12.742a.41.41 0 100-.82.41.41 0 000 .82z" fill="#FFEACC"/><path d="M14 3.309A2.875 2.875 0 0011.129.437V6.18A2.868 2.868 0 0014 3.309z" fill="#F98AAB"/><path d="M12.36 2.898h-.82v-.82h-.821v.82h-.82v.82h.82v.821h.82v-.82h.82v-.82z" fill="#fff"/><path d="M11.129 2.078V4.54h.41v-.82h.82V2.9h-.82v-.82h-.41z" fill="#fff"/></svg>