<svg width="16" height="13" fill="none" xmlns="http://www.w3.org/2000/svg"><path d="M2.156 4.552h2.422a.313.313 0 000-.625H2.156a.313.313 0 000 .625zm0 2.165h2.422a.313.313 0 000-.625H2.156a.313.313 0 000 .625zm3.003 5.238a.315.315 0 00-.408-.17.315.315 0 00-.17.41.317.317 0 00.409.168.315.315 0 00.169-.408z" fill="#F98AAB"/><path d="M15.916 7.119L12.2 3.129l1.138-1.136c.198-.195.307-.456.307-.734 0-.274-.106-.532-.3-.727a1.042 1.042 0 00-1.461-.011l-.003.003-1.56 1.556h-.584V.88a.313.313 0 00-.312-.312H7.769V.313a.313.313 0 00-.625 0v.255H6.002V.313a.313.313 0 00-.625 0v.255H4.236V.313a.313.313 0 00-.625 0v.255H2.469V.313a.313.313 0 00-.625 0v.255H.313A.313.313 0 000 .88v11.194c0 .173.14.313.313.313h3.19a.313.313 0 000-.625H.624V1.192h1.22v.284a.313.313 0 00.624 0v-.283H3.61v.283a.313.313 0 00.625 0v-.283h1.141v.283a.313.313 0 00.625 0v-.283h1.142v.283a.313.313 0 00.625 0v-.283H9.11v.89a2.259 2.259 0 00-1.495.655l-2.3 2.3a.315.315 0 00.051.483 2.125 2.125 0 001.16.341h.001l-.358.358a.312.312 0 00-.062.089L5.105 7.815a.682.682 0 00-.114.44H2.157a.313.313 0 000 .625h3.52a.692.692 0 00.382-.12l1.524-1.036a.324.324 0 00.05-.04l.707-.706.771.77v4.014h-2.86a.313.313 0 000 .625h3.173c.172 0 .312-.14.312-.313V8.358c.395.328.888.507 1.408.507h1.247c.26 0 .51.107.688.293l2.38 2.53c.19.201.541.063.541-.214V7.332a.312.312 0 00-.084-.213zm-7.858-3.94a1.625 1.625 0 011.145-.474h.49L7.746 4.648c-.18.173-.351.342-.582.45-.34.157-.736.182-1.094.07L8.058 3.18zm4.261-2.21a.415.415 0 01.582.004.405.405 0 01-.004.578L9.63 4.808l-.158-.157a1.219 1.219 0 00-.534-.311L12.32.968zM5.708 8.243c-.027.018-.052.016-.075-.007-.035-.034-.017-.06-.008-.075l.817-1.227.482.482-1.216.827zM7.413 7.02l-.58-.58.596-.594c.056.203.167.389.316.538l.153.152-.485.484zm7.962 3.665l-1.842-1.958a1.586 1.586 0 00-1.142-.488h-1.247c-.422 0-.82-.164-1.118-.462l-1.84-1.836c-.265-.2-.206-.641 0-.85a.611.611 0 01.846 0l1.495 1.496c.12.12.321.12.442 0a.313.313 0 000-.442l-.896-.896 1.684-1.68 3.618 3.885v3.231z" fill="#F98AAB"/></svg>