<svg width="11" height="10" fill="none" xmlns="http://www.w3.org/2000/svg"><path d="M7.172 0h2.531c.352 0 .65.133.897.398.246.265.369.587.369.966V4.09c0 .379-.123.7-.37.966a1.178 1.178 0 01-.896.398H8.227a.59.59 0 00-.448.198.684.684 0 00-.185.483v.228c0 .502.165.93.494 1.285.33.355.728.533 1.193.533h.422c.115 0 .213.045.297.135.083.09.125.196.125.32v.908c0 .123-.042.23-.125.32a.392.392 0 01-.297.135h-.422a3.08 3.08 0 01-1.308-.288 3.396 3.396 0 01-1.078-.777 3.694 3.694 0 01-.721-1.162 3.78 3.78 0 01-.267-1.41v-5c0-.378.123-.7.369-.965S6.82 0 7.172 0zM.37.398C.616.133.915 0 1.266 0h2.531c.352 0 .65.133.896.398.247.265.37.587.37.966V4.09c0 .379-.123.7-.37.966a1.178 1.178 0 01-.896.397H2.321a.59.59 0 00-.449.2.685.685 0 00-.184.482v.228c0 .501.165.93.494 1.285.33.355.727.533 1.193.533h.422c.114 0 .213.045.297.135.083.09.125.196.125.32v.908c0 .123-.042.23-.125.32a.392.392 0 01-.297.135h-.422a3.08 3.08 0 01-1.308-.288 3.397 3.397 0 01-1.078-.778 3.692 3.692 0 01-.721-1.16A3.78 3.78 0 010 6.363v-5c0-.379.124-.7.37-.965z" fill="#F6762C"/></svg>